<mxfile host="app.diagrams.net" modified="2023-07-03T05:19:03.422Z" agent="Mozilla/5.0 (Windows NT 10.0; Win64; x64) AppleWebKit/537.36 (KHTML, like Gecko) Chrome/114.0.0.0 Safari/537.36" version="21.5.0" etag="98ygM4uWFTEPZ53Dpxr2" type="github">
  <diagram name="Page-1" id="gc239vzlIrpUxOf5ur4i">
    <mxGraphModel>
      <root>
        <mxCell id="0" />
        <mxCell id="1" parent="0" />
      </root>
    </mxGraphModel>
  </diagram>
</mxfile>
